<svg width="512" height="512" viewBox="0 0 512 512" fill="none" xmlns="http://www.w3.org/2000/svg">
<defs>
<linearGradient id="bg_grad" x1="0" y1="0" x2="512" y2="512" gradientUnits="userSpaceOnUse">
<stop stop-color="#0F172A"/>
<stop offset="1" stop-color="#1E1B4B"/>
</linearGradient>
<radialGradient id="glow_center" cx="0" cy="0" r="1" gradientUnits="userSpaceOnUse" gradientTransform="translate(256 256) rotate(90) scale(200)">
<stop stop-color="#4F46E5" stop-opacity="0.4"/>
<stop offset="1" stop-color="#4F46E5" stop-opacity="0"/>
</radialGradient>
<linearGradient id="shape_grad" x1="156" y1="156" x2="356" y2="356" gradientUnits="userSpaceOnUse">
<stop stop-color="#818CF8"/>
<stop offset="1" stop-color="#4338CA"/>
</linearGradient>
<filter id="blur_glow" x="100" y="100" width="312" height="312" filterUnits="userSpaceOnUse" color-interpolation-filters="sRGB">
<feFlood flood-opacity="0" result="BackgroundImageFix"/>
<feBlend mode="normal" in="SourceGraphic" in2="BackgroundImageFix" result="shape"/>
<feGaussianBlur stdDeviation="15" result="effect1_foregroundBlur"/>
</filter>
</defs>
<rect width="512" height="512" rx="110" fill="url(#bg_grad)"/>
<circle cx="256" cy="256" r="180" fill="url(#glow_center)"/>
<!-- Abstract Nebula/Cloud Shape -->
<path d="M256 160C215 160 180 185 165 220C140 225 120 250 120 280C120 318.66 151.34 350 190 350H322C360.66 350 392 318.66 392 280C392 245 365 215 330 210C315 175 290 160 256 160Z" fill="url(#shape_grad)" fill-opacity="0.2"/>
<path d="M256 160C215 160 180 185 165 220C140 225 120 250 120 280C120 318.66 151.34 350 190 350H322C360.66 350 392 318.66 392 280C392 245 365 215 330 210C315 175 290 160 256 160Z" stroke="url(#shape_grad)" stroke-width="16" stroke-linecap="round" stroke-linejoin="round"/>
<!-- Connection Nodes -->
<circle cx="190" cy="280" r="12" fill="white"/>
<circle cx="322" cy="280" r="12" fill="white"/>
<circle cx="256" cy="210" r="12" fill="white"/>
<!-- Data Lines -->
<path d="M190 280L256 210L322 280" stroke="white" stroke-width="6" stroke-opacity="0.5"/>
</svg>